<?xml version="1.0" encoding="UTF-8"?>
<svg xmlns="http://www.w3.org/2000/svg" xmlns:xlink="http://www.w3.org/1999/xlink" width="244pt" height="244pt" viewBox="0 0 244 244" version="1.1">
<g id="surface1">
<path style=" stroke:none;fill-rule:nonzero;fill:rgb(255%,255%,255%);fill-opacity:1;" d="M 2.441406 122 L 2.441406 227.550781 L 44.472656 227.550781 L 44.472656 213.539062 L 16.449219 213.539062 L 16.449219 30.460938 L 44.472656 30.460938 L 44.472656 16.449219 L 2.441406 16.449219 Z M 2.441406 122 "/>
<path style=" stroke:none;fill-rule:nonzero;fill:rgb(255%,255%,255%);fill-opacity:1;" d="M 199.527344 23.457031 L 199.527344 30.460938 L 227.546875 30.460938 L 227.546875 213.539062 L 199.527344 213.539062 L 199.527344 227.550781 L 241.558594 227.550781 L 241.558594 16.449219 L 199.527344 16.449219 Z M 199.527344 23.457031 "/>
<path style=" stroke:none;fill-rule:nonzero;fill:rgb(255%,255%,255%);fill-opacity:1;" d="M 116.863281 63.667969 C 113.128906 64.320312 106.960938 66.5625 103.925781 68.335938 C 100.191406 70.53125 95.007812 75.855469 93.140625 79.359375 C 91.039062 83.375 89.777344 88.605469 89.777344 93.460938 C 89.824219 108.125 98.699219 118.074219 119.105469 126.15625 C 125.410156 128.675781 128.121094 130.078125 131.625 132.554688 C 137.039062 136.382812 139.796875 141.238281 140.125 147.496094 C 140.683594 157.726562 134.800781 165.058594 124.011719 167.578125 C 121.582031 168.140625 119.292969 168.28125 114.0625 168.09375 C 106.078125 167.8125 100.472656 166.550781 93.886719 163.46875 C 91.644531 162.398438 89.683594 161.648438 89.589844 161.742188 C 89.355469 162.023438 85.574219 173.511719 85.574219 173.933594 C 85.574219 174.539062 90.757812 176.921875 94.726562 178.183594 C 101.125 180.191406 108.039062 180.984375 117.097656 180.707031 C 126.4375 180.425781 130.21875 179.585938 136.714844 176.410156 C 143.390625 173.140625 148.296875 168.421875 151.191406 162.398438 C 153.386719 157.917969 154.136719 154.179688 154.507812 146.472656 C 154.789062 141.054688 154.695312 139.515625 154.042969 137.179688 C 151.289062 127.792969 144.140625 121.441406 130.082031 115.882812 C 123.824219 113.457031 115.140625 108.878906 112.335938 106.636719 C 106.875 102.199219 104.914062 98.089844 105.285156 91.691406 C 105.753906 83.796875 110.28125 78.613281 118.597656 76.464844 C 122.425781 75.4375 131.019531 75.578125 136.390625 76.652344 C 139.847656 77.398438 144.285156 79.082031 147.226562 80.761719 C 147.367188 80.855469 148.394531 78.144531 149.515625 74.785156 C 151.804688 67.824219 151.988281 68.480469 147.226562 66.660156 C 140.550781 64.089844 137.277344 63.53125 128.078125 63.390625 C 123.308594 63.292969 118.265625 63.433594 116.863281 63.667969 Z M 116.863281 63.667969 "/>
</g>
</svg>
